<?xml version="1.0" encoding="utf-8"?>
<!-- Generator: Adobe Illustrator 21.0.0, SVG Export Plug-In . SVG Version: 6.00 Build 0)  -->
<svg version="1.1" id="Layer_1" xmlns="http://www.w3.org/2000/svg" xmlns:xlink="http://www.w3.org/1999/xlink" x="0px" y="0px"
	 viewBox="0 0 427 416" style="enable-background:new 0 0 427 416;" xml:space="preserve">
<style type="text/css">
	.st0{fill:#409BFF;}
	.st1{opacity:0.7;fill:#FFFFFF;enable-background:new    ;}
	.st2{fill:none;stroke:#263238;stroke-linecap:round;stroke-linejoin:round;}
	.st3{fill:#263238;}
	.st4{fill:#FFFFFF;}
	.st5{clip-path:url(#SVGID_2_);}
	.st6{opacity:0.4;fill:#FFFFFF;enable-background:new    ;}
	.st7{fill:#FFFFFF;stroke:#263238;stroke-linecap:round;stroke-linejoin:round;}
	.st8{fill:#263238;stroke:#263238;stroke-linecap:round;stroke-linejoin:round;}
	.st9{fill:#409BFF;stroke:#263238;stroke-linecap:round;stroke-linejoin:round;}
	.st10{fill:none;stroke:#FFFFFF;stroke-width:2;stroke-miterlimit:10;}
	.st11{fill:none;stroke:#263238;stroke-width:2;stroke-linecap:round;stroke-linejoin:round;}
	.st12{fill:#263238;stroke:#FFFFFF;stroke-linecap:round;stroke-linejoin:round;}
</style>
<g id="freepik--background-simple--inject-31">
	<path class="st0" d="M360.9,274.9c0,0,54.5-63.2,40.5-144.1S315.2,7.7,266.7,12.5S170,64.8,122.6,70.6S3.9,118.3,18.3,197.8
		s58.3,87.3,129.3,90.2S319,327.4,360.9,274.9z"/>
	<path class="st1" d="M360.9,274.9c0,0,54.5-63.2,40.5-144.1S315.2,7.7,266.7,12.5S170,64.8,122.6,70.6S3.9,118.3,18.3,197.8
		s58.3,87.3,129.3,90.2S319,327.4,360.9,274.9z"/>
</g>
<g id="freepik--Desk--inject-31">
	<line class="st2" x1="26" y1="204.1" x2="405" y2="204.1"/>
</g>
<g id="freepik--Plant--inject-31">
	<ellipse class="st3" cx="73.2" cy="227.6" rx="32.2" ry="12"/>
	<path class="st4" d="M54.4,189.9l4.5,36.4c0,5.8,10.9,10.6,24.3,10.6s24.3-4.7,24.3-10.6l4.5-36.4H54.4z"/>
	<g>
		<defs>
			<path id="SVGID_1_" d="M54.4,189.9l4.5,36.4c0,5.8,10.9,10.6,24.3,10.6s24.3-4.7,24.3-10.6l4.5-36.4H54.4z"/>
		</defs>
		<clipPath id="SVGID_2_">
			<use xlink:href="#SVGID_1_"  style="overflow:visible;"/>
		</clipPath>
		<g class="st5">
			<path class="st0" d="M79,189.9H54.4l4.5,36.4c0,5.8,10.9,10.6,24.3,10.6c0.9,0,1.7,0,2.6-0.1C78.1,223.3,78,203.3,79,189.9z"/>
			<path class="st6" d="M79,189.9H54.4l4.5,36.4c0,5.8,10.9,10.6,24.3,10.6c0.9,0,1.7,0,2.6-0.1C78.1,223.3,78,203.3,79,189.9z"/>
		</g>
	</g>
	<path class="st2" d="M54.4,189.9l4.5,36.4c0,5.8,10.9,10.6,24.3,10.6s24.3-4.7,24.3-10.6l4.5-36.4H54.4z"/>
	<ellipse class="st7" cx="83.2" cy="189.9" rx="28.8" ry="12.5"/>
	<ellipse class="st8" cx="83.2" cy="189.6" rx="25.8" ry="10.9"/>
	<path class="st2" d="M85.2,190.7c0,0-2.3-21.2-16.6-37.3s-10.8-14.1-10.8-14.1"/>
	<path class="st2" d="M111,127.6c0,0-17.2,17.2-20.1,36.7s-1,22.6-1,22.6"/>
	<path class="st2" d="M88,189.5c0,0-3.4-12-6.8-36.1s-1.7-36.7-1.7-36.7"/>
	<path class="st0" d="M59.2,145.9c0,0-4.8,5.2-12.2-5s-4.9-22.1-4.9-22.1s3.8,5.8,9.5,8.2S65.6,143.1,59.2,145.9z"/>
	<path class="st0" d="M79.4,122.5c0,0-6.9,1.7-7.4-10.9s8-21.2,8-21.2s0,6.9,3.4,12S86.3,123.6,79.4,122.5z"/>
	<path class="st0" d="M107.8,134c0,0-6.7-2.3-0.3-13.2s18.3-13.4,18.3-13.4s-3.8,5.8-3.7,12S113,138.7,107.8,134z"/>
	<path class="st0" d="M87.5,187.8c0,0,4.6-20.6,14.3-30.4c5.8-5.8,13.6-9.1,21.8-9.2c0,0-11.5,4.6-14.9,13.8s-9.2,29.3-9.2,29.3
		H70.8c0,0-3.4-7.4-13.2-16.1s-25.8-14.3-25.8-14.3s17.8-6.3,30.4-1.1s21.8,27,21.8,27L87.5,187.8z"/>
	<path class="st0" d="M91.9,187.8c0,0-11.4-7.8-23.8-6.5s-13.4,11.4-14,14.3c-0.3,1.7-0.5,3.5-0.5,5.2c0,0,16-4.9,25.9-6.5
		S93.4,197.2,91.9,187.8z"/>
	<path class="st0" d="M87.7,187.8c0,0,7.2-7.8,15-6.5s8.5,11.4,8.8,14.3c0.2,1.7,0.3,3.5,0.3,5.2c0,0-10.1-4.9-16.3-6.5
		S86.7,197.2,87.7,187.8z"/>
</g>
<g id="freepik--Device--inject-31">
	<path class="st8" d="M130.6,62.2h216.5c4.5,0,8.1,3.6,8.1,8.1c0,0,0,0,0,0v151.3l0,0H122.5l0,0V70.4
		C122.5,65.9,126.1,62.2,130.6,62.2z"/>
	<polygon class="st7" points="390.1,292.2 87.6,292.2 122.5,221.7 355.2,221.7 	"/>
	<rect x="136.6" y="74.8" class="st9" width="204.5" height="134.2"/>
	
		<ellipse transform="matrix(0.7071 -0.7071 0.7071 0.7071 -54.9549 166.0436)" class="st3" cx="173" cy="149.4" rx="28.9" ry="28.9"/>
	
		<ellipse transform="matrix(0.7071 -0.7071 0.7071 0.7071 -35.3849 213.2861)" class="st3" cx="239.8" cy="149.4" rx="28.9" ry="28.9"/>
	
		<ellipse transform="matrix(0.9739 -0.227 0.227 0.9739 -25.8972 73.4899)" class="st3" cx="306.6" cy="149.3" rx="28.9" ry="28.9"/>
	<path class="st7" d="M153.1,142c0,0,12.7-34.8,20.2-34.8s20.7,34.4,20.7,34.4l-2.2,0.2c0,0-12.9-30.1-16.8-32s-10.9,9.1-19.6,32.2
		L153.1,142z"/>
	<path class="st7" d="M154.4,140h38.3c2.4,0,4.3,1.9,4.3,4.3v0v20.5c0,1.9-1.5,3.5-3.5,3.5h0h-40c-1.9,0-3.5-1.5-3.5-3.5v0v-20.5
		C150.1,141.9,152,140,154.4,140L154.4,140z"/>
	<line class="st2" x1="150.5" y1="155.1" x2="192.9" y2="155.1"/>
	<path class="st7" d="M194.8,141c0,0-1,1.2-1,4.7s-1.2,21.6-1,22.4s1.4,0.2,1.4,0.2"/>
	<rect x="170.1" y="151.1" class="st7" width="3.2" height="7.3"/>
	<path class="st7" d="M214.5,132.4c0,0,13.5-1.2,29.4-1.2s23.3,1,23.5,2s-2.1,13.7-2.1,14.9s0,17.6-0.4,18.6s-2.2,1.8-2.9,1.9
		s-41.9,0.6-43.1,0.6c-1.2-0.1-2.2-1.1-2.2-2.4c0-1.2,0.6-14.1-0.4-18.8S214.5,132.4,214.5,132.4z"/>
	<path class="st7" d="M229,138.9c0,0-0.2-15.5,1.4-20.8c1.4-4.6,5.6-7.8,10.4-7.8c6.2,0.4,11.5,4.8,13.1,10.8
		c2,7.6,0.4,17.2,0.2,18.2s-2.4,3.7-2.8-1.6s0.4-17.6-1.2-21.1c-1.8-3.8-6-5.9-10.2-5.1c-4.1,1-6.3,2.7-7,7.8s0.8,16.9-0.2,19.4
		S229.4,142.4,229,138.9z"/>
	<path class="st7" d="M218.2,132.6c0,0-1,10.4-1,14.3s-0.2,6.5-0.2,6.5"/>
	<path class="st2" d="M264,132.8c0,0,0.4,10.4,0.4,16.4"/>
	<path class="st7" d="M314.5,130.8c-0.5,0-0.9-0.4-1-0.9c-1.9-12.1-4.4-25.4-5.6-29.7c-1.8,4.1-5.9,17.1-9.2,28.9
		c-0.2,0.6-0.7,0.9-1.3,0.7c-0.6-0.2-0.9-0.7-0.7-1.3c0-0.1,2.1-7.6,4.5-15.1c4.8-15.7,5.7-16,6.5-16.2c0.4-0.1,0.8-0.1,1.1,0.2
		c0.5,0.4,1.3,0.9,4.1,16.8c1.4,7.7,2.6,15.3,2.6,15.4c0.1,0.5-0.3,1.1-0.8,1.2c0,0,0,0,0,0C314.6,130.8,314.5,130.9,314.5,130.8z"
		/>
	<path class="st7" d="M282,127.5c0,0,19.9-1.2,26.8-0.9s19,1,19,1.8s-0.3,26-1,31s-4.3,11.3-7.4,12.4s-13.5,0.7-18.9,0.5
		s-10.1-0.9-12.5-4.3s-4.1-17.7-4.1-17.7L282,127.5z"/>
	<path class="st7" d="M297.9,133c0-1.1-0.8-2-2-2c-1.1,0-2,0.8-2,2c0,1.1,0.8,2,1.9,2C296.9,135,297.8,134.1,297.9,133
		C297.9,133,297.9,133,297.9,133z"/>
	<ellipse transform="matrix(0.164 -0.9865 0.9865 0.164 131.1354 422.559)" class="st7" cx="314.9" cy="133.9" rx="2" ry="2"/>
	<path class="st7" d="M285.5,161c0,0,14.3-1.2,40.5,0.1"/>
	<rect x="139.7" y="78.8" class="st3" width="197.5" height="16.1"/>
	<line class="st10" x1="235.5" y1="88" x2="255.1" y2="88"/>
	<line class="st10" x1="277.8" y1="88" x2="297.3" y2="88"/>
	<path class="st4" d="M331.1,83c-0.1-0.1-0.2-0.2-0.3-0.2H320l-0.4-1.2c-0.1-0.2-0.2-0.3-0.4-0.3h-2.7c-0.2,0-0.4,0.2-0.4,0.4l0,0
		c0,0.2,0.2,0.4,0.4,0.4c0,0,0,0,0,0h2.4l2.6,7.9c0.1,0.2,0.2,0.3,0.4,0.3h0.1c-0.1,0.2-0.2,0.5-0.2,0.8c-0.1,0.8,0.5,1.5,1.3,1.6
		c0.8,0.1,1.5-0.5,1.6-1.3c0-0.1,0-0.2,0-0.2c0-0.3-0.1-0.5-0.2-0.8h2c-0.1,0.2-0.2,0.5-0.2,0.8c-0.1,0.8,0.5,1.5,1.3,1.6
		c0.8,0.1,1.5-0.5,1.6-1.3c0-0.1,0-0.2,0-0.2c0-0.3-0.1-0.5-0.2-0.8h0.3c0.2,0,0.4-0.2,0.4-0.4v0c0-0.2-0.2-0.4-0.4-0.4c0,0,0,0,0,0
		h-7l-0.5-1.4h7.8c0.2,0,0.4-0.1,0.4-0.3l1.2-4.4C331.2,83.2,331.1,83.1,331.1,83z M323.3,91.7c-0.3,0-0.6-0.3-0.6-0.6
		c0-0.3,0.3-0.6,0.6-0.6s0.6,0.3,0.6,0.6c0,0,0,0,0,0C323.9,91.4,323.6,91.7,323.3,91.7z M327.7,91.7c-0.3,0-0.6-0.3-0.6-0.6
		c0-0.3,0.3-0.6,0.6-0.6s0.6,0.3,0.6,0.6c0,0,0,0,0,0C328.3,91.4,328,91.7,327.7,91.7C327.7,91.7,327.7,91.7,327.7,91.7z
		 M328.8,87.2h-1.5v-3.6h1.5V87.2z M324.9,83.7h1.5v3.6h-1.5V83.7z M324,87.2h-1.5v-3.6h1.5L324,87.2z M320.3,83.7h1.4v3.6h-0.2
		L320.3,83.7z M329.6,85.8v-2.1h0.6L329.6,85.8z"/>
	<path class="st4" d="M334.3,82.7c0-1.7-1.3-3.1-3-3.1c-1.7,0-3.1,1.3-3.1,3c0,1.7,1.3,3.1,3,3.1c0,0,0,0,0,0
		C332.9,85.7,334.3,84.4,334.3,82.7z"/>
	<path class="st3" d="M330,84.6c-0.1-0.1-0.1-0.1-0.1-0.2c0-0.2,0-0.4,0.2-0.6l1.4-1.4c0.2-0.1,0.3-0.3,0.3-0.5
		c0-0.1-0.1-0.2-0.2-0.3c-0.1-0.1-0.2-0.1-0.4-0.1H331h-0.2l-0.1,0.1l-0.1,0.1l-0.1,0.1c-0.1,0-0.1,0-0.2,0c-0.1,0-0.1-0.1-0.2-0.1
		c0-0.1-0.1-0.1-0.1-0.2c0-0.1,0-0.1,0-0.2c0-0.1,0.1-0.1,0.2-0.2c0.4-0.2,0.8-0.3,1.2-0.3c0.3,0,0.7,0.1,0.9,0.4
		c0.2,0.2,0.4,0.5,0.4,0.8c0,0.2-0.1,0.4-0.2,0.6c-0.1,0.2-0.3,0.4-0.5,0.6l-1.1,0.9h1.4c0.1,0,0.2,0,0.2,0.1c0,0.1,0.1,0.2,0.1,0.3
		c0,0.1,0,0.2-0.1,0.3c0,0.1-0.1,0.1-0.2,0.1h-2C330.2,84.7,330.1,84.7,330,84.6z"/>
	<path class="st4" d="M219.4,91.7h-72.3c-2.7,0-4.8-2.2-4.8-4.8c0,0,0,0,0,0l0,0c0-2.7,2.2-4.8,4.8-4.8h72.3c2.7,0,4.8,2.2,4.8,4.8
		l0,0C224.2,89.5,222.1,91.7,219.4,91.7C219.4,91.7,219.4,91.7,219.4,91.7z"/>
	<line class="st11" x1="158.1" y1="187.3" x2="187.7" y2="187.3"/>
	<line class="st11" x1="158.1" y1="192.9" x2="187.7" y2="192.9"/>
	<line class="st11" x1="225" y1="187.3" x2="254.6" y2="187.3"/>
	<line class="st11" x1="225" y1="192.9" x2="254.6" y2="192.9"/>
	<line class="st11" x1="291.8" y1="187.3" x2="321.4" y2="187.3"/>
	<line class="st11" x1="291.8" y1="192.9" x2="321.4" y2="192.9"/>
	<polygon class="st12" points="229.1,244 229.5,235.4 217.2,235.4 216.4,244 	"/>
	<polygon class="st12" points="254.5,244 254.1,235.4 241.8,235.4 241.8,244 	"/>
	<polygon class="st12" points="320.7,253.2 333.9,253.2 330.8,244 318.1,244 	"/>
	<polygon class="st12" points="216.4,244 217.2,235.4 204.9,235.4 203.7,244 	"/>
	<polygon class="st12" points="191,244 192.6,235.4 180.4,235.4 178.3,244 	"/>
	<polygon class="st12" points="305.4,244 303.3,235.4 291,235.4 292.7,244 	"/>
	<polygon class="st12" points="318.1,244 315.6,235.4 303.3,235.4 305.4,244 	"/>
	<polygon class="st12" points="178.3,244 180.4,235.4 168.1,235.4 165.6,244 	"/>
	<polygon class="st12" points="267.3,244 266.4,235.4 254.1,235.4 254.5,244 	"/>
	<polygon class="st12" points="330.8,244 327.9,235.4 315.6,235.4 318.1,244 	"/>
	<polygon class="st12" points="292.7,244 291,235.4 278.7,235.4 280,244 	"/>
	<polygon class="st12" points="280,244 278.7,235.4 266.4,235.4 267.3,244 	"/>
	<polygon class="st12" points="241.8,244 241.8,235.4 229.5,235.4 229.1,244 	"/>
	<polygon class="st12" points="152.9,244 140.2,244 136.7,253.2 149.8,253.2 	"/>
	<polygon class="st12" points="155.8,235.4 143.5,235.4 140.2,244 152.9,244 	"/>
	<polygon class="st12" points="165.6,244 168.1,235.4 155.8,235.4 152.9,244 	"/>
	<polygon class="st12" points="132.9,263 128.9,273.6 143,273.6 146.5,263 	"/>
	<polygon class="st12" points="149.8,253.2 136.7,253.2 132.9,263 146.5,263 	"/>
	<polygon class="st12" points="146.5,263 143,273.6 157.1,273.6 160.1,263 	"/>
	<polygon class="st12" points="203.7,244 204.9,235.4 192.6,235.4 191,244 	"/>
	<polygon class="st12" points="202.4,253.2 203.7,244 191,244 189.3,253.2 	"/>
	<polygon class="st12" points="189.3,253.2 191,244 178.3,244 176.1,253.2 	"/>
	<polygon class="st12" points="215.6,253.2 216.4,244 203.7,244 202.4,253.2 	"/>
	<polygon class="st12" points="165.6,244 152.9,244 149.8,253.2 163,253.2 	"/>
	<polygon class="st12" points="323.6,263 337.2,263 333.9,253.2 320.7,253.2 	"/>
	<polygon class="st12" points="176.1,253.2 178.3,244 165.6,244 163,253.2 	"/>
	<polygon class="st12" points="149.8,253.2 146.5,263 160.1,263 163,253.2 	"/>
	<polygon class="st12" points="294.4,253.2 292.7,244 280,244 281.3,253.2 	"/>
	<polygon class="st12" points="281.3,253.2 280,244 267.3,244 268.1,253.2 	"/>
	<polygon class="st12" points="320.7,253.2 318.1,244 305.4,244 307.6,253.2 	"/>
	<polygon class="st12" points="241.9,253.2 241.8,244 229.1,244 228.7,253.2 	"/>
	<polygon class="st12" points="268.1,253.2 267.3,244 254.5,244 255,253.2 	"/>
	<polygon class="st12" points="255,253.2 254.5,244 241.8,244 241.9,253.2 	"/>
	<polygon class="st12" points="228.7,253.2 229.1,244 216.4,244 215.6,253.2 	"/>
	<polygon class="st12" points="268.1,253.2 269.1,263 282.7,263 281.3,253.2 	"/>
	<polygon class="st12" points="281.3,253.2 282.7,263 296.3,263 294.4,253.2 	"/>
	<polygon class="st12" points="163,253.2 160.1,263 173.8,263 176.1,253.2 	"/>
	<polygon class="st12" points="294.4,253.2 296.3,263 310,263 307.6,253.2 	"/>
	<polygon class="st12" points="241.9,253.2 241.9,263 255.5,263 255,253.2 	"/>
	<polygon class="st12" points="307.6,253.2 310,263 323.6,263 320.7,253.2 	"/>
	<polygon class="st12" points="255,253.2 255.5,263 269.1,263 268.1,253.2 	"/>
	<polygon class="st12" points="189.3,253.2 187.4,263 201,263 202.4,253.2 	"/>
	<polygon class="st12" points="176.1,253.2 173.8,263 187.4,263 189.3,253.2 	"/>
	<polygon class="st12" points="228.7,253.2 228.2,263 241.9,263 241.9,253.2 	"/>
	<polygon class="st12" points="215.6,253.2 214.6,263 228.2,263 228.7,253.2 	"/>
	<polygon class="st12" points="202.4,253.2 201,263 214.6,263 215.6,253.2 	"/>
	<polygon class="st12" points="307.6,253.2 305.4,244 292.7,244 294.4,253.2 	"/>
	<polygon class="st12" points="155.8,235.4 158.7,226.6 146.8,226.6 143.5,235.4 	"/>
	<polygon class="st12" points="143.5,235.4 132.1,235.4 128.4,244 140.2,244 	"/>
	<polygon class="st12" points="146.8,226.6 135.9,226.6 132.1,235.4 143.5,235.4 	"/>
	<polygon class="st12" points="140.2,244 128.4,244 124.5,253.2 136.7,253.2 	"/>
	<polygon class="st12" points="136.7,253.2 124.5,253.2 120.3,263 132.9,263 	"/>
	<polygon class="st12" points="132.9,263 120.3,263 115.8,273.6 128.9,273.6 	"/>
	<polygon class="st12" points="343.5,244 347,253.2 358.7,253.2 354.8,244 	"/>
	<polygon class="st12" points="350.8,263 362.9,263 358.7,253.2 347,253.2 	"/>
	<polygon class="st12" points="354.9,273.6 367.4,273.6 362.9,263 350.8,263 	"/>
	<polygon class="st12" points="254.1,235.4 253.7,226.6 241.8,226.6 241.8,235.4 	"/>
	<polygon class="st12" points="343.5,244 354.8,244 351.1,235.4 340.2,235.4 	"/>
	<polygon class="st12" points="337.2,263 350.8,263 347,253.2 333.9,253.2 	"/>
	<polygon class="st12" points="168.1,235.4 170.6,226.6 158.7,226.6 155.8,235.4 	"/>
	<polygon class="st12" points="327.9,235.4 330.8,244 343.5,244 340.2,235.4 	"/>
	<polygon class="st12" points="351.1,235.4 347.3,226.6 336.8,226.6 340.2,235.4 	"/>
	<polygon class="st12" points="340.2,235.4 336.8,226.6 325,226.6 327.9,235.4 	"/>
	<polygon class="st12" points="296.3,263 298.4,273.6 312.5,273.6 310,263 	"/>
	<polygon class="st12" points="340.7,273.6 354.9,273.6 350.8,263 337.2,263 	"/>
	<polygon class="st12" points="327.9,235.4 325,226.6 313.1,226.6 315.6,235.4 	"/>
	<polygon class="st12" points="323.6,263 326.6,273.6 340.7,273.6 337.2,263 	"/>
	<polygon class="st12" points="310,263 312.5,273.6 326.6,273.6 323.6,263 	"/>
	<polygon class="st12" points="333.9,253.2 347,253.2 343.5,244 330.8,244 	"/>
	<polygon class="st12" points="217.2,235.4 218.1,226.6 206.2,226.6 204.9,235.4 	"/>
	<polygon class="st12" points="315.6,235.4 313.1,226.6 301.2,226.6 303.3,235.4 	"/>
	<polygon class="st12" points="204.9,235.4 206.2,226.6 194.3,226.6 192.6,235.4 	"/>
	<polygon class="st12" points="241.8,235.4 241.8,226.6 230,226.6 229.5,235.4 	"/>
	<polygon class="st12" points="192.6,235.4 194.3,226.6 182.4,226.6 180.4,235.4 	"/>
	<polygon class="st12" points="180.4,235.4 182.4,226.6 170.6,226.6 168.1,235.4 	"/>
	<polygon class="st12" points="229.5,235.4 230,226.6 218.1,226.6 217.2,235.4 	"/>
	<polygon class="st12" points="303.3,235.4 301.2,226.6 289.3,226.6 291,235.4 	"/>
	<polygon class="st12" points="291,235.4 289.3,226.6 277.5,226.6 278.7,235.4 	"/>
	<polygon class="st12" points="266.4,235.4 265.6,226.6 253.7,226.6 254.1,235.4 	"/>
	<polygon class="st12" points="296.3,263 282.7,263 269.1,263 255.5,263 241.9,263 228.2,263 214.6,263 201,263 187.4,263 
		173.8,263 160.1,263 157.1,273.6 171.2,273.6 185.4,273.6 199.5,273.6 213.6,273.6 227.7,273.6 241.9,273.6 256,273.6 270.1,273.6 
		284.2,273.6 298.4,273.6 	"/>
	<polygon class="st12" points="278.7,235.4 277.5,226.6 265.6,226.6 266.4,235.4 	"/>
	<rect x="87.6" y="292.2" class="st8" width="302.7" height="4.3"/>
</g>
<g id="freepik--credit-card--inject-31">
	<path class="st9" d="M288.7,368l-109.6,0.9c-2.3,0-4-1.4-3.7-3.1l7-41.1c0.2-1.3,2-2.4,4-2.4l93.9-0.4c2,0,3.8,1,4,2.3l8,40.7
		C292.6,366.5,291,367.9,288.7,368z"/>
	<line class="st2" x1="236.8" y1="329.2" x2="271.1" y2="329.2"/>
	<line class="st2" x1="219" y1="332.1" x2="271.1" y2="332.1"/>
	<path class="st8" d="M217.6,357.2c-20.9,6.6-34.2,7.8-42,7.4l-0.3,1.5c-0.3,1.5,1.2,2.7,3.2,2.7l110.8-0.9c2,0,3.4-1.2,3.1-2.7
		l-4.8-24.5C258.7,340,250.3,346.8,217.6,357.2z"/>
	<path class="st7" d="M199.7,339.7l-8.6,0c-0.8,0-1.4-0.4-1.3-1l0.7-5.5c0.1-0.5,0.8-1,1.6-1l8.4,0c0.8,0,1.4,0.4,1.3,0.9l-0.5,5.5
		C201.2,339.2,200.5,339.7,199.7,339.7z"/>
	<path class="st7" d="M196.7,337.1h-2.1c-0.4,0-0.7-0.2-0.6-0.5l0.2-1.4c0-0.3,0.4-0.5,0.8-0.5h2.1c0.4,0,0.7,0.2,0.6,0.5l-0.1,1.4
		C197.4,336.9,197.1,337.1,196.7,337.1z"/>
	<path class="st2" d="M190.5,333.1h3.3c0.6,0,1.1,0.3,1.1,0.8l-0.1,0.9"/>
	<path class="st2" d="M201.8,333.1h-3.3c-0.6,0-1.2,0.4-1.3,0.8l-0.1,0.9"/>
	<path class="st2" d="M189.7,338.9h3.4c0.7,0,1.2-0.4,1.3-0.8l0.1-0.9"/>
	<path class="st2" d="M201.2,338.9h-3.3c-0.7,0-1.2-0.4-1.1-0.8l0.1-1"/>
	<line class="st2" x1="190.1" y1="336.1" x2="194" y2="336.1"/>
	<line class="st2" x1="197.4" y1="336.1" x2="201.4" y2="336.1"/>
	<path class="st4" d="M188.8,351.3c-0.2-0.1-0.3-0.1-0.5-0.3c-0.1-0.1-0.2-0.3-0.3-0.4c-0.1-0.2-0.1-0.3-0.1-0.5c0-0.2,0-0.4,0-0.5
		c0-1,0.8-1.8,1.8-1.8c0.1,0,0.1,0,0.2,0c1.1,0,1.6,0.6,1.5,1.8c0,0.2-0.1,0.4-0.1,0.5c-0.1,0.2-0.1,0.3-0.2,0.5
		c-0.1,0.2-0.2,0.3-0.4,0.4c-0.2,0.1-0.3,0.2-0.5,0.3c-0.2,0.1-0.5,0.1-0.7,0.1C189.2,351.4,189,351.3,188.8,351.3z M189.9,350.9
		c0.1,0,0.2-0.1,0.3-0.1c0.1-0.1,0.1-0.1,0.2-0.2c0.1-0.1,0.1-0.2,0.2-0.2c0-0.1,0.1-0.2,0.1-0.3c0-0.1,0.1-0.2,0.1-0.3
		c0-0.1,0-0.2,0-0.3c0-0.1,0-0.2,0-0.3V349c0-0.1,0-0.2,0-0.3c0-0.1-0.1-0.2-0.1-0.2c0-0.1-0.1-0.1-0.2-0.2c-0.1,0-0.2-0.1-0.2-0.1
		c-0.1,0-0.2,0-0.3,0c-0.1,0-0.2,0-0.4,0c-0.1,0-0.2,0.1-0.3,0.1c-0.1,0.1-0.1,0.1-0.2,0.2c-0.1,0.1-0.1,0.1-0.1,0.2
		c0,0.1-0.1,0.2-0.1,0.3c0,0.1-0.1,0.2-0.1,0.3c0,0.1,0,0.2,0,0.3v0.3v0.3c0,0.1,0,0.2,0,0.3c0,0.1,0.1,0.2,0.1,0.2
		c0,0.1,0.1,0.1,0.1,0.2c0.1,0.1,0.2,0.1,0.2,0.1c0.1,0,0.2,0,0.3,0C189.6,350.9,189.7,350.9,189.9,350.9z"/>
	<path class="st4" d="M193.6,351.2c-0.2,0-0.3-0.1-0.5-0.3c-0.1-0.1-0.2-0.2-0.3-0.4c-0.1-0.2-0.1-0.3-0.1-0.5c0-0.2,0-0.4,0-0.5
		c0-1,0.8-1.8,1.8-1.8c0.1,0,0.1,0,0.2,0c1.1,0,1.6,0.6,1.5,1.8c0,0.2-0.1,0.4-0.1,0.5c-0.1,0.2-0.1,0.3-0.2,0.5
		c-0.1,0.2-0.2,0.3-0.4,0.4c-0.2,0.1-0.3,0.2-0.5,0.3c-0.2,0.1-0.5,0.1-0.7,0.1C194,351.3,193.8,351.3,193.6,351.2z M194.7,350.9
		c0.1,0,0.2-0.1,0.3-0.1c0.1-0.1,0.1-0.1,0.2-0.2c0.1-0.1,0.1-0.1,0.1-0.2c0-0.1,0.1-0.2,0.1-0.3c0-0.1,0.1-0.2,0.1-0.3v-0.3
		c0-0.1,0-0.2,0-0.3c0-0.1,0-0.2,0-0.3c0-0.1,0-0.2,0-0.3c0-0.1-0.1-0.2-0.1-0.2c0-0.1-0.1-0.1-0.2-0.2c-0.1,0-0.2-0.1-0.2-0.1
		c-0.1,0-0.2,0-0.3,0c-0.1,0-0.2,0-0.4,0c-0.1,0-0.2,0.1-0.3,0.1c-0.1,0-0.2,0.1-0.2,0.2c-0.1,0.1-0.1,0.1-0.1,0.2
		c0,0.1-0.1,0.2-0.1,0.3s0,0.2-0.1,0.3s0,0.2,0,0.3c0,0.1,0,0.2,0,0.3v0.3c0,0.1,0,0.2,0,0.3c0,0.1,0.1,0.2,0.1,0.2
		c0,0.1,0.1,0.1,0.1,0.2c0.1,0.1,0.2,0.1,0.3,0.1c0.1,0,0.2,0,0.3,0C194.4,350.9,194.6,350.9,194.7,350.9z"/>
	<path class="st4" d="M198.4,351.2c-0.2,0-0.3-0.1-0.5-0.3c-0.1-0.1-0.2-0.2-0.3-0.4c-0.1-0.2-0.1-0.3-0.1-0.5c0-0.2,0-0.4,0-0.5
		c0-1,0.7-1.8,1.7-1.8c0.1,0,0.1,0,0.2,0c1.1,0,1.7,0.6,1.6,1.8c0,0.2-0.1,0.4-0.1,0.5c-0.1,0.2-0.1,0.3-0.2,0.5
		c-0.1,0.2-0.2,0.3-0.4,0.4c-0.2,0.1-0.3,0.2-0.5,0.3c-0.2,0.1-0.5,0.1-0.7,0.1C198.8,351.3,198.6,351.3,198.4,351.2z M199.5,350.8
		c0.1,0,0.2-0.1,0.3-0.1c0.1-0.1,0.2-0.1,0.2-0.2c0.1-0.1,0.1-0.1,0.1-0.2c0-0.1,0.1-0.2,0.1-0.3c0-0.1,0-0.2,0.1-0.3v-0.3
		c0-0.1,0-0.2,0-0.3c0-0.1,0-0.2,0-0.3c0-0.1,0-0.2-0.1-0.3c0-0.1-0.1-0.2-0.1-0.2c0-0.1-0.1-0.1-0.2-0.2c-0.1-0.1-0.2-0.1-0.2-0.1
		c-0.1,0-0.2-0.1-0.3,0c-0.1,0-0.2,0-0.3,0c-0.1,0-0.2,0.1-0.3,0.1c-0.1,0-0.1,0.1-0.2,0.2c-0.1,0.1-0.1,0.1-0.1,0.2
		c0,0.1-0.1,0.2-0.1,0.3c0,0.1,0,0.2-0.1,0.3c0,0.1,0,0.2,0,0.3c0,0.1,0,0.2,0,0.3c0,0.1,0,0.2,0,0.3c0,0.1,0,0.2,0,0.3
		c0,0.1,0.1,0.2,0.1,0.2c0,0.1,0.1,0.1,0.2,0.2c0.1,0.1,0.2,0.1,0.3,0.1c0.1,0,0.2,0,0.3,0C199.2,350.9,199.3,350.9,199.5,350.8z"/>
	<path class="st4" d="M203.2,351.2c-0.2,0-0.3-0.1-0.5-0.3c-0.1-0.1-0.2-0.2-0.3-0.4c-0.1-0.2-0.1-0.3-0.1-0.5c0-0.2,0-0.4,0-0.5
		c0-0.9,0.7-1.7,1.7-1.8c0.1,0,0.2,0,0.2,0c1.1,0,1.7,0.6,1.6,1.8c0,0.2,0,0.4-0.1,0.5c0,0.2-0.1,0.3-0.2,0.5
		c-0.1,0.2-0.2,0.3-0.4,0.4c-0.2,0.1-0.3,0.2-0.5,0.3c-0.2,0.1-0.5,0.1-0.7,0.1C203.6,351.3,203.4,351.2,203.2,351.2z M204.3,350.8
		c0.1,0,0.2-0.1,0.3-0.1c0.1-0.1,0.1-0.1,0.2-0.2c0.1-0.1,0.1-0.1,0.1-0.2l0.1-0.3c0-0.1,0-0.2,0.1-0.3v-0.3c0-0.1,0-0.2,0-0.3
		c0-0.1,0-0.2,0-0.3c0-0.1,0-0.2-0.1-0.3c0-0.1-0.1-0.2-0.1-0.2c0-0.1-0.1-0.1-0.2-0.2c-0.1-0.1-0.2-0.1-0.3-0.1c-0.1,0-0.2,0-0.3,0
		c-0.1,0-0.2,0-0.4,0c-0.1,0-0.2,0.1-0.3,0.1c-0.1,0.1-0.1,0.1-0.2,0.2c-0.1,0.1-0.1,0.1-0.1,0.2l-0.1,0.3c0,0.1,0,0.2-0.1,0.3
		c0,0.1,0,0.2,0,0.3c0,0.1,0,0.2,0,0.3c0,0.1,0,0.2,0,0.3c0,0.1,0,0.2,0.1,0.3c0,0.1,0.1,0.2,0.1,0.2c0,0.1,0.1,0.1,0.2,0.2
		c0.1,0.1,0.2,0.1,0.2,0.1c0.1,0,0.2,0.1,0.3,0C204,350.9,204.1,350.9,204.3,350.8z"/>
	<path class="st4" d="M213.4,351.1c-0.2,0-0.3-0.1-0.5-0.3c-0.1-0.1-0.2-0.2-0.3-0.4c-0.1-0.2-0.1-0.3-0.1-0.5c0-0.2,0-0.4,0-0.5
		c-0.1-0.9,0.6-1.7,1.5-1.8c0.1,0,0.2,0,0.3,0c1.1,0,1.7,0.6,1.6,1.8c0,0.2,0,0.4-0.1,0.5c0,0.2-0.1,0.3-0.2,0.5
		c-0.1,0.2-0.2,0.3-0.3,0.4c-0.2,0.1-0.3,0.2-0.5,0.3c-0.2,0.1-0.5,0.1-0.7,0.1C213.9,351.2,213.6,351.2,213.4,351.1z M214.5,350.8
		c0.1,0,0.2-0.1,0.3-0.1c0.1-0.1,0.1-0.1,0.2-0.2c0.1-0.1,0.1-0.1,0.1-0.2c0-0.1,0.1-0.2,0.1-0.3c0-0.1,0-0.2,0-0.3
		c0-0.1,0-0.2,0-0.3c0-0.1,0-0.2,0-0.3c0-0.1,0-0.2,0-0.3c0-0.1,0-0.2-0.1-0.3c0-0.1-0.1-0.2-0.1-0.2c0-0.1-0.1-0.1-0.2-0.2
		c-0.1-0.1-0.2-0.1-0.3-0.1c-0.1,0-0.2,0-0.3,0c-0.1,0-0.2,0-0.3,0c-0.1,0-0.2,0.1-0.3,0.1c-0.1,0.1-0.1,0.1-0.2,0.2
		c-0.1,0.1-0.1,0.1-0.1,0.2c0,0.1-0.1,0.2-0.1,0.3c0,0.1,0,0.2-0.1,0.3c0,0.1,0,0.2,0,0.3c0,0.1,0,0.2,0,0.3c0,0.1,0,0.2,0,0.3
		c0,0.1,0,0.2,0.1,0.3c0,0.1,0.1,0.2,0.1,0.2c0,0.1,0.1,0.1,0.2,0.2c0.1,0.1,0.2,0.1,0.3,0.1c0.1,0,0.2,0,0.3,0
		C214.2,350.8,214.3,350.8,214.5,350.8L214.5,350.8z"/>
	<path class="st4" d="M218.2,351.1c-0.2-0.1-0.3-0.1-0.5-0.3c-0.1-0.1-0.2-0.2-0.3-0.4c-0.1-0.1-0.1-0.3-0.1-0.5c0-0.2,0-0.4,0-0.5
		c-0.1-0.9,0.5-1.7,1.4-1.8c0.1,0,0.2,0,0.3,0c1.1,0,1.7,0.6,1.6,1.8c0,0.3-0.1,0.7-0.2,1c-0.1,0.2-0.2,0.3-0.3,0.4
		c-0.1,0.1-0.3,0.2-0.5,0.3c-0.2,0.1-0.5,0.1-0.7,0.1C218.6,351.2,218.4,351.2,218.2,351.1z M219.3,350.8c0.1,0,0.2-0.1,0.3-0.1
		c0.1-0.1,0.1-0.1,0.2-0.2c0.1-0.1,0.1-0.1,0.1-0.2c0-0.1,0.1-0.2,0.1-0.3c0-0.1,0-0.2,0-0.3s0-0.2,0-0.3v-0.3c0-0.1,0-0.2,0-0.3
		c0-0.1,0-0.2-0.1-0.3c0-0.1-0.1-0.2-0.1-0.2c0-0.1-0.1-0.1-0.2-0.2c-0.1-0.1-0.2-0.1-0.3-0.1c-0.1,0-0.2,0-0.3,0
		c-0.1,0-0.2,0-0.3,0c-0.1,0-0.2,0.1-0.3,0.1c-0.1,0.1-0.1,0.1-0.2,0.2c-0.1,0.1-0.1,0.1-0.1,0.2c0,0.1-0.1,0.2-0.1,0.3
		c0,0.1,0,0.2,0,0.3s0,0.2,0,0.3v0.3c0,0.1,0,0.2,0,0.3c0,0.1,0,0.2,0.1,0.3c0,0.1,0.1,0.2,0.1,0.2c0,0.1,0.1,0.1,0.2,0.2
		c0.1,0.1,0.2,0.1,0.3,0.1c0.1,0,0.2,0.1,0.3,0C219,350.8,219.1,350.8,219.3,350.8L219.3,350.8z"/>
	<path class="st4" d="M223,351c-0.2-0.1-0.3-0.1-0.5-0.3c-0.1-0.1-0.2-0.2-0.3-0.4c-0.1-0.2-0.1-0.3-0.2-0.5c0-0.2,0-0.4,0-0.5
		c-0.1-0.9,0.5-1.7,1.4-1.8c0.1,0,0.2,0,0.4,0c1.1,0,1.7,0.6,1.7,1.8c0,0.2,0,0.4,0,0.5c0,0.2-0.1,0.3-0.2,0.5
		c-0.1,0.2-0.2,0.3-0.3,0.4c-0.1,0.1-0.3,0.2-0.5,0.3c-0.2,0.1-0.5,0.1-0.7,0.1C223.5,351.1,223.2,351.1,223,351z M224,350.7
		c0.1,0,0.2-0.1,0.3-0.1c0.1-0.1,0.1-0.1,0.2-0.2c0-0.1,0.1-0.1,0.1-0.2c0-0.1,0.1-0.2,0.1-0.3c0-0.1,0-0.2,0-0.3s0-0.2,0-0.3
		c0-0.1,0-0.2,0-0.3c0-0.1,0-0.2,0-0.3c0-0.1,0-0.2-0.1-0.3c0-0.1-0.1-0.2-0.1-0.2c0-0.1-0.1-0.1-0.2-0.2c-0.1-0.1-0.2-0.1-0.3-0.1
		c-0.1,0-0.2,0-0.3,0c-0.1,0-0.2,0-0.3,0c-0.1,0-0.2,0.1-0.3,0.1c-0.1,0.1-0.1,0.1-0.2,0.2c0,0.1-0.1,0.1-0.1,0.2
		c0,0.1-0.1,0.2-0.1,0.3c0,0.1,0,0.2,0,0.3c0,0.1,0,0.2,0,0.3c0,0.1,0,0.2,0,0.3c0,0.1,0,0.2,0,0.3c0,0.1,0,0.2,0.1,0.3
		c0,0.1,0.1,0.2,0.1,0.2c0.1,0.2,0.3,0.3,0.4,0.3c0.1,0,0.2,0.1,0.3,0C223.8,350.7,223.9,350.7,224,350.7z"/>
	<path class="st4" d="M227.8,351c-0.2-0.1-0.3-0.1-0.5-0.3c-0.1-0.1-0.2-0.2-0.3-0.4c-0.1-0.2-0.1-0.3-0.2-0.5c0-0.2,0-0.4,0-0.5
		c-0.1-0.9,0.5-1.7,1.3-1.8c0.1,0,0.3,0,0.4,0c1.1,0,1.7,0.6,1.7,1.8c0,0.2,0,0.4,0,0.5c0,0.2-0.1,0.3-0.2,0.5
		c-0.1,0.2-0.2,0.3-0.3,0.4c-0.1,0.1-0.3,0.2-0.5,0.3c-0.2,0.1-0.5,0.1-0.7,0.1C228.2,351.1,228,351.1,227.8,351z M228.8,350.7
		c0.1,0,0.2-0.1,0.3-0.1c0.1-0.1,0.1-0.1,0.2-0.2c0-0.1,0.1-0.1,0.1-0.2c0-0.1,0.1-0.2,0.1-0.3c0-0.1,0-0.2,0-0.3s0-0.2,0-0.3
		s0-0.2,0-0.3s0-0.2,0-0.3c0-0.1,0-0.2-0.1-0.3c0-0.1-0.1-0.2-0.1-0.2c0-0.1-0.1-0.1-0.2-0.2c-0.1-0.1-0.2-0.1-0.3-0.1
		c-0.1,0-0.2,0-0.3,0c-0.1,0-0.2,0-0.3,0c-0.1,0-0.2,0.1-0.3,0.1c-0.1,0.1-0.1,0.1-0.2,0.2c-0.1,0.1-0.1,0.1-0.1,0.2
		c0,0.1,0,0.2-0.1,0.3c0,0.1,0,0.2,0,0.3c0,0.1,0,0.2,0,0.3s0,0.2,0,0.3s0,0.2,0,0.3c0,0.1,0,0.2,0.1,0.3c0,0.1,0.1,0.2,0.1,0.2
		c0,0.1,0.1,0.1,0.2,0.2c0.1,0.1,0.2,0.1,0.3,0.1c0.1,0,0.2,0.1,0.3,0C228.6,350.7,228.7,350.7,228.8,350.7z"/>
	<path class="st4" d="M238,350.9c-0.2,0-0.4-0.1-0.5-0.3c-0.1-0.1-0.2-0.2-0.3-0.4c-0.1-0.2-0.1-0.3-0.2-0.5c0-0.2-0.1-0.4-0.1-0.5
		c0-1.2,0.5-1.8,1.7-1.8c0.9-0.1,1.7,0.5,1.8,1.4c0,0.1,0,0.2,0,0.4c0,0.2,0,0.4,0,0.5c0,0.2-0.1,0.3-0.1,0.5
		c-0.1,0.2-0.2,0.3-0.3,0.4c-0.1,0.1-0.3,0.2-0.5,0.3C239,351.1,238.5,351.1,238,350.9L238,350.9z M239,350.6
		c0.2-0.1,0.3-0.2,0.4-0.3c0-0.1,0.1-0.1,0.1-0.2c0-0.1,0.1-0.2,0.1-0.3c0-0.1,0-0.2,0-0.3v-0.3c0-0.1,0-0.2,0-0.3s0-0.2,0-0.3
		s0-0.2-0.1-0.3l-0.1-0.2c-0.1-0.1-0.1-0.1-0.2-0.2c-0.1-0.1-0.2-0.1-0.3-0.1c-0.1,0-0.2,0-0.3,0c-0.1,0-0.2,0-0.3,0
		c-0.1,0-0.2,0.1-0.3,0.1c-0.1,0.1-0.1,0.1-0.2,0.2c0,0.1-0.1,0.1-0.1,0.2c0,0.1,0,0.2-0.1,0.3c0,0.1,0,0.2,0,0.3v0.3
		c0,0.1,0,0.2,0,0.3c0,0.1,0,0.2,0,0.3c0,0.1,0,0.2,0.1,0.3c0,0.1,0.1,0.1,0.1,0.2c0.1,0.1,0.1,0.1,0.2,0.2c0.1,0.1,0.2,0.1,0.3,0.1
		c0.1,0,0.2,0,0.3,0C238.8,350.6,238.9,350.6,239,350.6L239,350.6z"/>
	<path class="st4" d="M242.7,350.9c-0.2-0.1-0.4-0.1-0.5-0.3c-0.1-0.1-0.2-0.2-0.3-0.4c-0.1-0.2-0.1-0.3-0.2-0.5
		c0-0.2-0.1-0.4-0.1-0.5c0-1.2,0.5-1.8,1.6-1.8c0.9-0.1,1.7,0.5,1.8,1.4c0,0.1,0,0.2,0,0.3c0,0.2,0,0.4,0,0.5c0,0.2-0.1,0.3-0.1,0.5
		c-0.1,0.2-0.2,0.3-0.3,0.4c-0.1,0.1-0.3,0.2-0.5,0.3c-0.2,0.1-0.5,0.1-0.7,0.1C243.2,351,243,351,242.7,350.9z M243.7,350.6
		c0.1,0,0.2-0.1,0.3-0.1c0.1-0.1,0.1-0.1,0.2-0.2c0-0.1,0.1-0.1,0.1-0.2c0-0.1,0.1-0.2,0.1-0.3c0-0.1,0-0.2,0-0.3v-0.3
		c0-0.1,0-0.2,0-0.3c0-0.1,0-0.2,0-0.3c0-0.2-0.1-0.3-0.2-0.5c-0.1-0.1-0.1-0.1-0.2-0.2c-0.1-0.1-0.2-0.1-0.3-0.1
		c-0.1,0-0.2,0-0.3,0c-0.1,0-0.2,0-0.3,0c-0.1,0-0.2,0.1-0.3,0.1c-0.1,0.1-0.1,0.1-0.2,0.2c0,0.1-0.1,0.1-0.1,0.2
		c0,0.1-0.1,0.2-0.1,0.3c0,0.1,0,0.2,0,0.3c0,0.1,0,0.2,0,0.3c0,0.1,0,0.2,0,0.3c0,0.1,0,0.2,0,0.3c0,0.1,0,0.2,0.1,0.3
		c0,0.1,0.1,0.2,0.1,0.2c0,0.1,0.1,0.1,0.2,0.2c0.1,0.1,0.2,0.1,0.3,0.1c0.1,0,0.2,0,0.4,0C243.5,350.6,243.6,350.6,243.7,350.6
		L243.7,350.6z"/>
	<path class="st4" d="M247.5,350.9c-0.2-0.1-0.4-0.1-0.5-0.3c-0.1-0.1-0.2-0.2-0.3-0.4c-0.1-0.2-0.2-0.3-0.2-0.5
		c0-0.2-0.1-0.4-0.1-0.5c-0.1-1.2,0.5-1.8,1.6-1.8c0.9-0.1,1.7,0.5,1.8,1.4c0,0.1,0,0.2,0,0.3c0,0.2,0,0.4,0,0.5
		c0,0.2-0.1,0.3-0.1,0.5c-0.1,0.1-0.2,0.3-0.3,0.4c-0.1,0.1-0.3,0.2-0.5,0.3c-0.2,0.1-0.5,0.1-0.7,0.1
		C248,351,247.7,350.9,247.5,350.9z M248.5,350.5c0.1,0,0.2-0.1,0.3-0.1c0.1-0.1,0.1-0.1,0.2-0.2c0-0.1,0.1-0.1,0.1-0.2
		c0-0.1,0-0.2,0-0.3c0-0.1,0-0.2,0-0.3c0-0.1,0-0.2,0-0.3v-0.3c0-0.1,0-0.2,0-0.3c0-0.1,0-0.2-0.1-0.3c0-0.1-0.1-0.2-0.1-0.2
		c-0.1-0.1-0.1-0.1-0.2-0.2c-0.1-0.1-0.2-0.1-0.3-0.1c-0.1,0-0.2,0-0.3,0c-0.1,0-0.2,0-0.3,0c-0.1,0-0.2,0.1-0.2,0.1
		c-0.1,0-0.1,0.1-0.2,0.2c0,0.1-0.1,0.1-0.1,0.2c0,0.1,0,0.2,0,0.3c0,0.1,0,0.2,0,0.3v0.3v0.3c0,0.1,0,0.2,0,0.3
		c0,0.1,0,0.2,0.1,0.3c0,0.1,0.1,0.2,0.1,0.2c0.1,0.1,0.1,0.1,0.2,0.2c0.1,0.1,0.2,0.1,0.3,0.1c0.1,0,0.2,0,0.3,0
		C248.3,350.6,248.4,350.6,248.5,350.5L248.5,350.5z"/>
	<path class="st4" d="M252.3,350.8c-0.2-0.1-0.4-0.1-0.5-0.3c-0.1-0.1-0.3-0.2-0.3-0.4c-0.1-0.2-0.2-0.3-0.2-0.5
		c0-0.2-0.1-0.4-0.1-0.5c-0.1-1.2,0.4-1.8,1.6-1.8c0.9-0.1,1.7,0.6,1.8,1.5c0,0.1,0,0.2,0,0.3c0,0.2,0,0.4,0,0.5
		c0,0.2-0.1,0.3-0.1,0.5c-0.1,0.2-0.2,0.3-0.3,0.4c-0.1,0.1-0.3,0.2-0.5,0.3c-0.2,0.1-0.5,0.1-0.7,0.1
		C252.7,350.9,252.5,350.9,252.3,350.8z M253.3,350.5c0.1,0,0.2-0.1,0.3-0.1c0.1-0.1,0.1-0.1,0.2-0.2c0-0.1,0.1-0.2,0.1-0.2
		c0-0.1,0-0.2,0-0.3c0-0.1,0-0.2,0-0.3c0-0.1,0-0.2,0-0.3v-0.3c0-0.1,0-0.2-0.1-0.3c0-0.1,0-0.2-0.1-0.3c0-0.1-0.1-0.2-0.1-0.2
		c-0.1-0.1-0.1-0.1-0.2-0.2c-0.1-0.1-0.2-0.1-0.3-0.1c-0.1,0-0.2,0-0.3,0c-0.1,0-0.2,0-0.3,0c-0.1,0-0.2,0.1-0.2,0.1
		c-0.1,0.1-0.2,0.3-0.3,0.4c0,0.1,0,0.2,0,0.3c0,0.1,0,0.2,0,0.3s0,0.2,0,0.3c0,0.1,0,0.2,0,0.3c0,0.1,0,0.2,0.1,0.3
		c0,0.1,0,0.2,0.1,0.3c0,0.1,0.1,0.2,0.1,0.2c0.1,0.1,0.1,0.1,0.2,0.2c0.1,0.1,0.2,0.1,0.3,0.1c0.1,0,0.2,0,0.4,0
		C253,350.5,253.1,350.5,253.3,350.5L253.3,350.5z"/>
	<path class="st4" d="M262.4,350.8c-0.2-0.1-0.4-0.1-0.5-0.3c-0.1-0.1-0.3-0.2-0.4-0.4c-0.1-0.1-0.2-0.3-0.2-0.5
		c-0.1-0.2-0.1-0.4-0.1-0.5c-0.1-1.2,0.4-1.8,1.5-1.8c1-0.1,1.8,0.6,1.9,1.6c0,0.1,0,0.1,0,0.2c0,0.2,0,0.4,0,0.5
		c0,0.2,0,0.3-0.1,0.5c-0.1,0.2-0.1,0.3-0.3,0.4c-0.1,0.1-0.3,0.2-0.5,0.3c-0.2,0.1-0.5,0.1-0.7,0.1
		C262.9,350.9,262.6,350.8,262.4,350.8z M263.4,350.4c0.1,0,0.2-0.1,0.2-0.1c0.1-0.1,0.1-0.1,0.2-0.2c0-0.1,0.1-0.2,0.1-0.2
		c0-0.1,0-0.2,0-0.3v-0.3c0-0.1,0-0.2,0-0.3c0-0.1,0-0.2,0-0.3s0-0.2-0.1-0.3c0-0.1-0.1-0.2-0.1-0.3c0-0.1-0.1-0.2-0.1-0.2
		c-0.1-0.1-0.1-0.1-0.2-0.2c-0.1-0.1-0.2-0.1-0.3-0.1c-0.1,0-0.2,0-0.3,0c-0.1,0-0.2,0-0.3,0c-0.1,0-0.2,0.1-0.2,0.1
		c-0.1,0.1-0.1,0.1-0.2,0.2c0,0.1-0.1,0.1-0.1,0.2c0,0.1,0,0.2,0,0.3c0,0.1,0,0.2,0,0.3c0,0.1,0,0.2,0,0.3v0.3c0,0.1,0,0.2,0.1,0.3
		c0,0.1,0.1,0.2,0.1,0.3c0,0.1,0.1,0.2,0.1,0.2c0.1,0.1,0.1,0.1,0.2,0.2c0.1,0.1,0.2,0.1,0.3,0.1c0.1,0,0.2,0,0.3,0
		C263.2,350.5,263.3,350.5,263.4,350.4z"/>
	<path class="st4" d="M267.2,350.8c-0.2-0.1-0.4-0.1-0.5-0.3c-0.1-0.1-0.3-0.2-0.4-0.4c-0.1-0.1-0.2-0.3-0.2-0.5
		c-0.1-0.2-0.1-0.4-0.1-0.5c-0.1-1.2,0.4-1.8,1.5-1.8c1-0.1,1.8,0.6,1.9,1.6c0,0.1,0,0.1,0,0.2c0,0.2,0,0.4,0,0.5
		c0,0.2,0,0.3-0.1,0.5c-0.1,0.1-0.1,0.3-0.3,0.4c-0.1,0.1-0.3,0.2-0.5,0.3c-0.2,0.1-0.5,0.1-0.7,0.1
		C267.6,350.8,267.4,350.8,267.2,350.8z M268.2,350.4c0.1,0,0.2-0.1,0.2-0.1c0.1-0.1,0.1-0.1,0.2-0.2c0.1-0.2,0.1-0.3,0.1-0.5
		c0-0.1,0-0.2,0-0.3c0-0.1,0-0.2,0-0.3c0-0.1,0-0.2,0-0.3c0-0.1,0-0.2-0.1-0.3c0-0.1-0.1-0.2-0.1-0.3c0-0.1-0.1-0.2-0.1-0.2
		c-0.1-0.1-0.1-0.1-0.2-0.2c-0.1,0-0.2-0.1-0.3-0.1c-0.1,0-0.2,0-0.3,0c-0.1,0-0.2,0-0.3,0c-0.1,0-0.2,0.1-0.2,0.1
		c-0.1,0.1-0.1,0.1-0.1,0.2c0,0.1-0.1,0.1-0.1,0.2c0,0.1,0,0.2,0,0.3c0,0.1,0,0.2,0,0.3v0.3c0,0.1,0,0.2,0,0.3c0,0.1,0,0.2,0.1,0.3
		c0,0.1,0.1,0.2,0.1,0.3c0,0.1,0.1,0.2,0.1,0.2c0.1,0.1,0.1,0.1,0.2,0.2c0.1,0.1,0.2,0.1,0.3,0.1c0.1,0,0.2,0,0.3,0
		C267.9,350.4,268,350.4,268.2,350.4z"/>
	<path class="st4" d="M271.9,350.7c-0.2-0.1-0.4-0.1-0.5-0.3c-0.1-0.1-0.3-0.2-0.4-0.3c-0.1-0.1-0.2-0.3-0.2-0.5
		c-0.1-0.2-0.1-0.4-0.1-0.5c-0.2-1.2,0.3-1.8,1.5-1.8c1-0.1,1.9,0.6,2,1.6c0,0.1,0,0.1,0,0.2c0,0.2,0,0.4,0,0.5c0,0.2,0,0.3-0.1,0.5
		c-0.1,0.1-0.1,0.3-0.3,0.4c-0.1,0.1-0.3,0.2-0.5,0.3c-0.2,0.1-0.4,0.1-0.7,0.1C272.4,350.8,272.1,350.8,271.9,350.7z M272.9,350.4
		c0.1,0,0.2-0.1,0.2-0.1c0.1-0.1,0.1-0.1,0.1-0.2c0.1-0.2,0.1-0.3,0.1-0.5v-0.3V349c0-0.1,0-0.2,0-0.3c0-0.1,0-0.2-0.1-0.3
		c0-0.1-0.1-0.2-0.1-0.3c0-0.1-0.1-0.2-0.2-0.2c-0.1-0.1-0.1-0.1-0.2-0.2c-0.1,0-0.2-0.1-0.3-0.1c-0.1,0-0.2,0-0.3,0
		c-0.1,0-0.2,0-0.3,0c-0.1,0-0.2,0.1-0.2,0.1c-0.1,0.1-0.1,0.1-0.1,0.2c0,0.1-0.1,0.2-0.1,0.2c0,0.1,0,0.2,0,0.3c0,0.1,0,0.2,0,0.3
		c0,0.1,0,0.2,0,0.3c0,0.1,0,0.2,0,0.3s0,0.2,0.1,0.3c0,0.1,0.1,0.2,0.1,0.3c0,0.1,0.1,0.2,0.1,0.2c0.1,0.1,0.1,0.1,0.2,0.2
		c0.1,0.1,0.2,0.1,0.3,0.1c0.1,0,0.2,0,0.3,0C272.7,350.4,272.8,350.4,272.9,350.4L272.9,350.4z"/>
	<path class="st4" d="M276.7,350.7c-0.2-0.1-0.4-0.1-0.5-0.3c-0.1-0.1-0.3-0.2-0.4-0.4c-0.1-0.1-0.2-0.3-0.3-0.5
		c-0.1-0.2-0.1-0.4-0.1-0.5c-0.2-1.2,0.3-1.8,1.4-1.8c1-0.1,1.9,0.6,2,1.6c0,0,0,0.1,0,0.1c0,0.2,0,0.4,0,0.5c0,0.2,0,0.3-0.1,0.5
		c-0.1,0.2-0.1,0.3-0.3,0.4c-0.1,0.1-0.3,0.2-0.5,0.3C277.6,350.8,277.1,350.8,276.7,350.7L276.7,350.7z M277.7,350.3
		c0.1,0,0.2-0.1,0.2-0.1c0.1-0.1,0.1-0.1,0.1-0.2c0-0.1,0.1-0.1,0.1-0.2c0-0.1,0-0.2,0-0.3c0-0.1,0-0.2,0-0.3c0-0.1,0-0.2,0-0.3
		c0-0.1,0-0.2,0-0.3s0-0.2-0.1-0.3c0-0.1-0.1-0.2-0.1-0.3c0-0.1-0.1-0.2-0.2-0.2c-0.1-0.1-0.1-0.1-0.2-0.2c-0.1,0-0.2-0.1-0.3-0.1
		c-0.1,0-0.2,0-0.3,0c-0.1,0-0.2,0-0.3,0c-0.1,0-0.2,0.1-0.2,0.1c-0.1,0.1-0.1,0.1-0.1,0.2c0,0.1-0.1,0.2-0.1,0.2c0,0.1,0,0.2,0,0.3
		c0,0.1,0,0.2,0,0.3v0.3c0,0.1,0,0.2,0,0.3s0,0.2,0.1,0.3c0,0.1,0.1,0.2,0.1,0.3c0,0.1,0.1,0.2,0.1,0.2c0.1,0.1,0.1,0.1,0.2,0.2
		c0.1,0.1,0.2,0.1,0.3,0.1c0.1,0,0.2,0,0.4,0C277.4,350.4,277.5,350.4,277.7,350.3L277.7,350.3z"/>
	<path class="st7" d="M273.2,359.4c0.3,2.3-2,4.3-5.2,4.3s-6-1.9-6.2-4.2s2.1-4.1,5.2-4.2S272.9,357.1,273.2,359.4z"/>
	<path class="st7" d="M281,359.3c0.4,2.3-1.9,4.3-5.1,4.3s-6-1.9-6.3-4.2s2-4.1,5.1-4.2S280.6,357.1,281,359.3z"/>
</g>
<g id="freepik--Hands--inject-31">
	<path class="st7" d="M114.3,398.2c0,0,22.4-46.9,25.8-55.9s51.6-31.8,54.2-36.2s6-17.6,8.6-23.2s0.4-7.8,2.1-12.5
		s4.7-10.3,0.4-10.3s-9.9,4.7-12.1,12.5s-10.8,14.2-10.8,14.2l0.4-5.2c0.4-5.2,5.6-21.1,7.7-24.5s15.1-17.2,16.8-17.6
		s5.6,3.4,9.5,3.4c3.9,0,4.7-3,2.6-4.7s-3.9-7.3-9-10.8s-10.8,0-10.8,0c-1.4-2.4-3-4.7-4.7-6.9c-2.2-2.6-6.5-6.9-12.1-8.2
		c-3.3-0.8-6.8,0-9.5,2.1c-2-0.4-4-0.7-6-0.9c-4.3-0.4-7.3,2.1-11.6,9s-11.2,20.2-11.2,20.2s1.7-12.5,1.7-17.6s0.4-10.8-1.7-12.9
		s-4.3,0.4-5.2,8.2s-10.8,34.8-12,42.1s-15.1,47.7-22.4,58.1s-46.9,55.5-46.9,55.5 M176.2,245.9c0,0,6-17.2,7.7-17.2
		s8.2,4.7,8.2,4.7L176.2,245.9z"/>
	<path class="st0" d="M124.2,281.3c0,0,7.3-22.9,8.6-28.8c0.9-4.2,3.9,0.7,3.9,0.7s6-4.3,6-0.7c0.1,2.3,0.9,4.5,2.3,6.3
		c0,0-1.4-6.3,5-8.1s9,0.9,7.7,8.1s0.9,4.5,2.3,2.7s-0.4-6.3,7.7-9.5s12.6,0,11.3,6.8s-3.6,12.6-3.6,22.5s1.8,18.9,3.6,18.9
		s11.7-10.4,13.5-3.6s-1.8,6.8-11.3,14.9s-34.2,14.9-38.3,23s-6.8,13.1-9.5,13.5s-7.2-15.8-20.3-14s-26.6,14.9-23.4,9.5
		s14.9-14,21.6-29.3S124.2,281.3,124.2,281.3z"/>
	<path class="st6" d="M124.2,281.3c0,0,7.3-22.9,8.6-28.8c0.9-4.2,3.9,0.7,3.9,0.7s6-4.3,6-0.7c0.1,2.3,0.9,4.5,2.3,6.3
		c0,0-1.4-6.3,5-8.1s9,0.9,7.7,8.1s0.9,4.5,2.3,2.7s-0.4-6.3,7.7-9.5s12.6,0,11.3,6.8s-3.6,12.6-3.6,22.5s1.8,18.9,3.6,18.9
		s11.7-10.4,13.5-3.6s-1.8,6.8-11.3,14.9s-34.2,14.9-38.3,23s-6.8,13.1-9.5,13.5s-7.2-15.8-20.3-14s-26.6,14.9-23.4,9.5
		s14.9-14,21.6-29.3S124.2,281.3,124.2,281.3z"/>
	<path class="st7" d="M173.6,214.5c0,0-12,20.6-14.6,25s-4.7,8.2-7.8,9.9s-5.2,5.6-4.3,6.9"/>
	<path class="st7" d="M144.8,242.9c-1.3,2.4-3.1,4.6-5.2,6.5c-3.4,3-7.3,5.6-8.2,9c-0.6,2.2-1.6,4.2-3,6"/>
	<path class="st7" d="M176.2,245.9c0,0-8.6,5.6-10.8,7.3s-3,5.6-3,5.6"/>
	<line class="st2" x1="199.9" y1="227.4" x2="192.1" y2="233.4"/>
	<path class="st7" d="M409.1,371.2c0,0-39.1-38.3-42.1-46s-2.1-9.5-4.7-15s-10.3-15.1-10.8-22s-3.9-23.2-3.9-28.8s-1.3-13.8-3-15
		s-11.2-3.5-11.2-3.5s-5.2-16.3-9-17.2s-11.6,3.4-11.6,3.4s-1.7-3-3.9-7.7s-6-4.7-10.8-3s-14.2,5.6-14.2,5.6s-10.8-8.2-14.2-3
		s-7.7,14.6-8.6,18.1s5.1,3.3,6.4,2.5s6.1-4.4,6.1-4.4s9.4,7.1,11.1,11s5.2,21.9,5.6,25.4s-1.3,14.2-1.3,14.2s-8.2-14.6-12-18.9
		s-9.5-6.9-13.8-6.9s-7.3,4.7-3.9,6.9s7.3,4.7,8.2,7.7s9.5,18.5,10.3,24.1s6.9,16.8,12.5,20.2s26.2,7.7,30.1,11.6
		s31.4,58.5,31.4,58.5 M291.6,230.1h6.9l7.3,14.2L291.6,230.1z"/>
	<path class="st0" d="M346.3,265.6c0,0-5-14-10.8-11.3s-6.8,4.1-6.8,4.1s-3.2-5-8.6-3.2s-7.2-1.8-7.2-1.8s-7.2-4.5-11.7-0.9
		s-0.9,13.5,0.9,21.6s-2.3,23.9-3.1,25.2s-13.1-4-14.4,0.9s4,15.8,14.9,19.4s18.9,5.4,23,9.5s14.4,33.3,23.4,35.6
		s18.9-10.8,28.4-9.9s21.6,7.7,16.7,1.8s-25.7-27-27-34.7s-6.3-13.1-8.6-16.7s-6.3-25.2-7.7-31.1
		C346.9,271.3,346.4,268.4,346.3,265.6z"/>
	<path class="st6" d="M346.3,265.6c0,0-5-14-10.8-11.3s-6.8,4.1-6.8,4.1s-3.2-5-8.6-3.2s-7.2-1.8-7.2-1.8s-7.2-4.5-11.7-0.9
		s-0.9,13.5,0.9,21.6s-2.3,23.9-3.1,25.2s-13.1-4-14.4,0.9s4,15.8,14.9,19.4s18.9,5.4,23,9.5s14.4,33.3,23.4,35.6
		s18.9-10.8,28.4-9.9s21.6,7.7,16.7,1.8s-25.7-27-27-34.7s-6.3-13.1-8.6-16.7s-6.3-25.2-7.7-31.1
		C346.9,271.3,346.4,268.4,346.3,265.6z"/>
	<path class="st7" d="M312.7,227.1l6,11.2c0,0,2.5,5.9,4.9,8.3s4.6,4.3,5.6,7.4s1.2,4.6,1.2,4.6"/>
	<line class="st2" x1="333.4" y1="240.9" x2="339.4" y2="253.4"/>
	<line class="st2" x1="283.9" y1="222" x2="291.6" y2="230.1"/>
	<path class="st7" d="M341,256.3c0.1,2.6,0.4,5.2,0.9,7.7"/>
	<path class="st7" d="M310.1,249.1c0,0,3.7,2.8,4.3,6.5"/>
	<path class="st7" d="M273.6,235.1c0,0-3.4-1.4-3.4-4.1"/>
	<path class="st7" d="M298.5,230.1c0,0-2.5-1.9-2.5-4.3"/>
</g>
</svg>
